<?xml version="1.0" encoding="UTF-8"?>
<svg width="46px" height="53px" viewBox="0 0 46 53" version="1.1" xmlns="http://www.w3.org/2000/svg" xmlns:xlink="http://www.w3.org/1999/xlink">
    <!-- Generator: Sketch 46.2 (44496) - http://www.bohemiancoding.com/sketch -->
    <title>number copy 2</title>
    <desc>Created with Sketch.</desc>
    <defs>
        <filter x="-78.0%" y="-39.7%" width="256.0%" height="214.7%" filterUnits="objectBoundingBox" id="filter-1">
            <feOffset dx="0" dy="6" in="SourceAlpha" result="shadowOffsetOuter1"></feOffset>
            <feGaussianBlur stdDeviation="5.5" in="shadowOffsetOuter1" result="shadowBlurOuter1"></feGaussianBlur>
            <feColorMatrix values="0 0 0 0 1   0 0 0 0 0.727430556   0 0 0 0 0.923489279  0 0 0 0.218410326 0" type="matrix" in="shadowBlurOuter1" result="shadowMatrixOuter1"></feColorMatrix>
            <feMerge>
                <feMergeNode in="shadowMatrixOuter1"></feMergeNode>
                <feMergeNode in="SourceGraphic"></feMergeNode>
            </feMerge>
        </filter>
    </defs>
    <g id="Design" stroke="none" stroke-width="1" fill="none" fill-rule="evenodd">
        <g id="Dark-Landing-Copy-3" transform="translate(-1079.000000, -707.000000)" fill="#FFFFFF">
            <g id="Group-3" transform="translate(1000.000000, 699.332031)">
                <g id="number-copy-2" filter="url(#filter-1)" transform="translate(89.450765, 12.000000)">
                    <g id="marker-copy-17">
                        <g id="Group" stroke-width="1" transform="translate(0.111100, 0.277011)">
                            <path d="M12.4604515,0.081945268 C5.9438961,0.081945268 0.673400385,5.11470798 0.673400385,11.3373251 C0.673400385,19.77886 12.4604515,32.2401735 12.4604515,32.2401735 C12.4604515,32.2401735 24.2475026,19.77886 24.2475026,11.3373251 C24.2475026,5.11470798 18.9770069,0.081945268 12.4604515,0.081945268 L12.4604515,0.081945268 Z M12.4604515,18.1654195 C8.31030429,18.1654195 4.94206887,14.949113 4.94206887,10.9861639 C4.94206887,7.02321482 8.31030429,3.80690832 12.4604515,3.80690832 C16.6105987,3.80690832 19.9788341,7.02321482 19.9788341,10.9861639 C19.9788341,14.949113 16.6105987,18.1654195 12.4604515,18.1654195 L12.4604515,18.1654195 Z" id="Shape-Copy"></path>
                        </g>
                        <polygon id="+" points="17.0007353 11.5219149 17.0007353 10.169617 13.9830882 10.169617 13.9830882 7.21225532 12.4875 7.21225532 12.4875 10.169617 9.46985294 10.169617 9.46985294 11.5219149 12.4875 11.5219149 12.4875 14.6814894 13.9830882 14.6814894 13.9830882 11.5219149"></polygon>
                    </g>
                </g>
            </g>
        </g>
    </g>
</svg>